<svg xmlns="http://www.w3.org/2000/svg" xmlns:xlink="http://www.w3.org/1999/xlink" version="1.1" x="0px" y="0px" viewBox="0 0 100 125" enable-background="new 0 0 100 100" xml:space="preserve"><g><path fill="none" d="M48.842,65.07c-2.105,1.047-3.331,4.786-3.994,6.766c-0.825,2.466-1.334,5.043-1.638,7.621   c-0.432,3.657-0.404,7.344-0.594,11.016c2.298,0.571,4.468,1.378,6.899,1.522c2.746,0.162,5.409-0.269,7.999-1.163   C56.971,82.568,55.188,61.912,48.842,65.07z"/><path fill="none" d="M33.232,90.888c0.309-0.396,0.846-0.882,1.425-1.149c-1.804-2.588-1.995-6.922-2.271-9.931   c-0.397-4.323-0.249-8.694,0.124-13.013c0.006-0.071,0.014-0.143,0.021-0.215c-4.396,5.806-5.035,13.962-1.558,20.437   c0.182-0.088,0.37-0.16,0.565-0.197c0.343-0.064,0.733,0.301,0.496,0.645c-0.16,0.233-0.347,0.442-0.54,0.646   c0.017,0.377-0.322,0.678-0.681,0.709c-0.212,0.226-0.418,0.459-0.588,0.725c-0.269,0.419-0.506,0.856-0.682,1.323   c-0.038,0.101-0.07,0.197-0.101,0.29C30.641,90.855,31.99,90.889,33.232,90.888z"/><path fill="none" d="M52.173,45.469c0.136,0.834,0.335,1.692,0.242,2.538c-0.054,0.489-0.674,0.584-0.85,0.115   c-0.3-0.799-0.319-1.673-0.392-2.518c-0.056-0.641-0.113-1.295-0.124-1.945c-0.128-0.058-0.257-0.119-0.386-0.187   c-0.632,0.34-1.251,0.551-1.854,0.651c0.612,1.723,0.12,3.875,1.325,5.397c0.9,1.136,2.35,0.832,3.119-0.286   c0.555-0.805,0.704-1.727,0.804-2.681c0.085-0.816,0.085-1.688,0.294-2.488c-0.787,0.15-1.604,0.135-2.442-0.096   C52.01,44.469,52.092,44.973,52.173,45.469z"/><path fill="none" d="M70.722,90.278c-0.063-0.151-0.136-0.298-0.211-0.444c-0.416,0.276-1.06-0.002-0.924-0.632   c0.048-0.222,0.101-0.442,0.152-0.663c-0.035-0.057-0.072-0.113-0.106-0.17c-0.15-0.245,0.04-0.546,0.284-0.59   c0.674-2.779,1.462-5.47,1.464-8.399c0.002-2.937-0.732-5.621-1.796-8.265c0.004,2.987-0.138,5.975-0.509,8.935   c-0.382,3.049-0.638,7.608-2.667,10.045c-0.004,0.004-0.008,0.006-0.012,0.01c0.648,0.478,1.214,1.113,1.598,1.823   c0.571-0.065,1.143-0.119,1.717-0.155c0.498-0.031,1.017-0.12,1.519-0.118C70.967,91.262,70.908,90.721,70.722,90.278z"/><path d="M48.074,44.192c0.423,2.632,0.074,6.7,3.163,7.096c3.616,0.463,4.052-4.881,4.255-7.559   c2.511-1.003,4.647-3.564,6.087-5.868c0.583-0.933-0.891-1.789-1.471-0.86c-1.839,2.945-5.211,7.118-9.016,4.753   c-0.013-0.008-0.026-0.012-0.039-0.019c-0.043-0.026-0.088-0.048-0.134-0.066c0,0,0,0,0,0c-0.092-0.035-0.192-0.05-0.296-0.043   c-0.014,0.001-0.028-0.001-0.041,0.001c-0.014,0.002-0.028,0.006-0.041,0.009c-0.043,0.007-0.084,0.016-0.125,0.031   c-0.017,0.006-0.035,0.016-0.053,0.024c-0.029,0.013-0.058,0.026-0.086,0.042c-0.015,0.008-0.03,0.013-0.045,0.022   c-4.187,2.618-7.644-2.509-9.556-5.644c-0.57-0.935-2.045-0.08-1.471,0.86C41.153,40.164,44.279,44.282,48.074,44.192z    M54.35,44.067c-0.208,0.799-0.208,1.672-0.294,2.488c-0.1,0.954-0.249,1.876-0.804,2.681c-0.77,1.118-2.219,1.422-3.119,0.286   c-1.205-1.522-0.713-3.674-1.325-5.397c0.603-0.101,1.222-0.311,1.854-0.651c0.129,0.068,0.257,0.129,0.386,0.187   c0.011,0.65,0.068,1.304,0.124,1.945c0.073,0.845,0.092,1.719,0.392,2.518c0.176,0.469,0.796,0.374,0.85-0.115   c0.093-0.846-0.105-1.704-0.242-2.538c-0.081-0.497-0.163-1-0.265-1.498C52.746,44.202,53.562,44.217,54.35,44.067z"/><path d="M54.592,35.258c0.295,0.093,0.668-0.227,0.54-0.54c-0.624-1.527-2.796-2.042-4.305-2.02   c-1.606,0.024-3.134,0.611-4.108,1.866c-0.158-0.085-0.357,0.027-0.322,0.241c0.01,0.061,0.026,0.12,0.039,0.18   c-0.024,0.075-0.008,0.153,0.045,0.206c0.249,0.927,0.822,1.776,1.408,2.515c0.541,0.682,1.278,1.531,2.112,1.942   c-0.001,0.001-0.002,0.002-0.003,0.002c-0.139,0.095-0.111,0.387,0.097,0.36c1.161-0.153,2.099-0.617,3.006-1.357   c0.738-0.602,2.012-1.796,1.956-2.831c-0.02-0.38-0.445-0.694-0.801-0.46c-0.415,0.273-0.557,0.645-0.815,1.056   c-0.278,0.443-0.61,0.85-0.966,1.231c-0.52,0.556-1.127,1.04-1.751,1.49c-0.613-0.715-1.489-1.215-2.128-1.933   c-0.602-0.677-1.032-1.452-1.527-2.195c1.147-0.694,2.393-1.155,3.759-1.118C52.351,33.934,53.249,34.836,54.592,35.258z"/><path d="M42.678,24.699c0.747-0.052,1.26,0.771,1.538,1.347c0.071,0.146,0.293,0.131,0.368,0c0.766-1.349-0.785-2.76-2.098-2.755   c-1.535,0.006-2.709,1.705-2.294,3.149c0.281,0.977,1.605,0.539,1.476-0.407C41.584,25.416,42.018,24.744,42.678,24.699z"/><path d="M61.132,26.44c0.416-1.448-0.76-3.137-2.294-3.149c-1.315-0.01-2.862,1.408-2.098,2.755c0.075,0.131,0.297,0.146,0.368,0   c0.281-0.582,0.788-1.392,1.538-1.347c0.661,0.039,1.094,0.722,1.01,1.334C59.527,26.978,60.851,27.418,61.132,26.44z"/><path d="M58.501,12.748c0.822-1.211,3.58-5.756,5.913-6.308c-0.144,0.075-0.28,0.163-0.4,0.263c-1.886,1.574-3.11,4.232-3.91,6.493   c-0.286,0.808,1.003,1.16,1.284,0.354c0.443-1.273,1.001-2.498,1.697-3.653c0.374-0.62,0.782-1.231,1.237-1.795   c0.266-0.328,1.284-1.393,1.867-1.062c0.064,0.073,0.127,0.148,0.189,0.234c0.043,0.061,0.078,0.139,0.117,0.209   c0.014,0.045,0.031,0.086,0.043,0.138c0.012,0.056,0.046,0.082,0.085,0.096c0.494,1.117,0.619,2.972,0.808,4.007   c0.247,1.353,0.397,2.72,0.618,4.076c-0.014,0.026-0.032,0.048-0.031,0.084c0.086,4.94,1.484,9.762,1.868,14.674   c0.265,3.382-1.181,8.375-4.634,9.91c-0.31,0.138-0.394,0.401-0.338,0.651c-1.666,1.75-2.718,3.85-2.957,6.288   c-0.039,0.402,0.592,0.47,0.693,0.094c0.563-2.098,1.384-4.104,2.586-5.911c0.191,0.134,0.443,0.185,0.708,0.063   c2.603-1.199,4.551-4.882,5.07-7.587c0.494-2.578-0.16-5.285-0.588-7.826c-0.54-3.198-0.934-6.478-1.802-9.61   c0.047-0.045,0.079-0.106,0.084-0.179c0.169-2.591-0.298-5.267-0.879-7.786c-0.284-1.23-0.567-3.049-1.965-3.547   c-1.431-0.509-2.888,0.749-3.905,1.578c-1.779,1.451-3.548,3.328-4.525,5.427C57.098,12.842,58.049,13.414,58.501,12.748z"/><path d="M36.607,41.652c0.906,0.389,1.449-0.872,0.528-1.253c-3.539-1.465-5.865-5.72-5.744-9.338   c0.171-5.092,1.813-10.068,1.915-15.178c0.001-0.036-0.018-0.058-0.031-0.084c0.221-1.356,0.37-2.723,0.618-4.076   c0.189-1.037,0.261-2.907,0.78-4.003c0.051-0.007,0.097-0.032,0.113-0.1c0.016-0.07,0.036-0.126,0.056-0.183   c0.035-0.053,0.064-0.117,0.103-0.164c0.216-0.089,0.432-0.178,0.648-0.267c0.554,0.157,1.203,0.843,1.407,1.096   c0.456,0.563,0.864,1.174,1.238,1.795c0.696,1.155,1.255,2.38,1.697,3.653c0.28,0.805,1.57,0.456,1.284-0.354   c-0.8-2.261-2.024-4.918-3.91-6.493c-0.113-0.094-0.24-0.177-0.375-0.249c0.039-0.016,0.078-0.032,0.116-0.048   c0.533,0.323,1.035,0.69,1.507,1.1c0.533,0.445,1.043,0.922,1.518,1.429c1.095,1.17,1.856,2.499,2.748,3.813   c0.452,0.665,1.404,0.095,1.069-0.625c-0.317-0.682-0.723-1.337-1.181-1.963c0.032-0.002,0.062,0.003,0.096-0.004   c2.642-0.596,4.987-1.402,7.763-1.34c2.739,0.062,5.115,0.919,7.71,1.648c0.12,0.034,0.237-0.136,0.13-0.222   C54.378,6.989,46.828,6.44,42.402,9.194c-0.119,0.074-0.188,0.173-0.223,0.279c-0.774-0.941-1.656-1.802-2.546-2.554   c-1.063-0.897-2.637-2.334-4.171-1.803c-1.282,0.445-1.595,2.01-1.873,3.15c-0.643,2.631-1.147,5.469-0.971,8.183   c0.005,0.073,0.038,0.134,0.085,0.179c-0.863,3.135-1.262,6.411-1.801,9.611c-0.423,2.513-1.191,5.448-0.565,7.99   C31.027,37.032,33.962,40.516,36.607,41.652z"/><path d="M72.361,91.908c-0.05-0.027-0.102-0.045-0.153-0.067c0.012-0.015,0.029-0.026,0.04-0.043   c0.406-0.664-0.135-1.59-0.48-2.193c-0.198-0.347-0.418-0.665-0.669-0.954c2.195-6.053,1.744-13.175-1.522-18.722   c-0.017-1.182-0.054-2.364-0.11-3.542c-0.383-8.105-1.299-16.819-4.128-24.476c-0.048-0.131-0.225-0.078-0.205,0.057   c1.159,8.003,2.612,15.875,2.936,23.982c0.166,4.156,0.1,8.324-0.328,12.463c-0.213,2.062-0.516,4.115-0.97,6.139   c-0.37,1.649-1.189,3.348-1.251,5.033c-0.179-0.084-0.359-0.16-0.541-0.217c-0.462-0.145-0.865,0.506-0.486,0.834   c0.679,0.588,1.302,1.242,1.746,2.028c0.199,0.352,0.333,0.723,0.456,1.098c-2.427-0.456-5.153-0.249-7.556-0.258   c-0.421-6.164-0.754-12.376-2.008-18.438c-0.747-3.61-2.079-11.657-7.295-11.297c-4.384,0.303-6.18,7.179-7.006,10.536   c-1.295,5.27-1.519,10.927-1.127,16.396c-0.036-0.007-0.07-0.017-0.106-0.024c-0.26-0.054-0.506,0.274-0.278,0.478   c0.143,0.128,0.297,0.239,0.446,0.357c0.055,0.667,0.121,1.331,0.193,1.991c-2.593,0-5.444-0.155-8.059,0.251   c0.019-0.153,0.031-0.31,0.057-0.475c0.045-0.28,0.128-0.541,0.249-0.789c0.108-0.092,0.177-0.213,0.207-0.353   c0.21-0.304,0.477-0.553,0.785-0.759c0.324-0.217,0.733-0.323,1.002-0.606c0.178-0.187,0.127-0.456-0.077-0.596   c-0.102-0.07-0.21-0.117-0.321-0.15c-0.072-1.618-0.814-3.211-1.153-4.8c-0.467-2.192-0.73-4.417-0.877-6.652   c-0.268-4.076-0.147-8.167,0.191-12.235c0.671-8.072,2.543-15.939,3.455-23.966c0.014-0.125-0.173-0.136-0.209-0.028   c-2.51,7.483-3.827,15.626-4.57,23.509c-0.082-0.013-0.174-0.002-0.271,0.055c-3.448,2.03-4.137,6.03-4.706,9.677   c-0.7,4.491-0.011,8.776,2.171,12.725c-0.273,0.283-0.518,0.587-0.729,0.868c-0.535,0.716-1.377,2.028-1.047,2.948   c0.144,0.4,0.61,0.545,0.935,0.247c0.042-0.038,0.068-0.079,0.102-0.119c1.078,0.344,2.302,0.378,3.475,0.378   c-0.137,0.478-0.169,0.975,0.01,1.379c-0.022,0.005-0.045,0.008-0.066,0.014c-0.228,0.058-0.228,0.404,0,0.462   c3.048,0.774,6.567,0.262,9.688,0.279c0.729,0.004,0.801-1.009,0.224-1.22c0.045-0.492,0.087-0.984,0.12-1.477   c4.239,2.74,10.508,2.348,15.07,0.853c0.032,0.526,0.057,0.945,0.076,1.227c0.047,0.683,0.827,0.877,1.24,0.579   c0.059,0.018,0.116,0.038,0.188,0.037c2.509-0.017,5.365,0.393,7.875-0.114c0.052,0.147,0.103,0.295,0.165,0.439   c0.24,0.554,1.156,0.387,1.277-0.167c0.13-0.596,0.074-1.201-0.109-1.78c0.46,0.054,0.92,0.099,1.382,0.135   c0.891,0.069,1.837,0.332,2.65-0.099C72.681,92.578,72.674,92.08,72.361,91.908z M29.441,91.159   c0.032-0.093,0.064-0.189,0.101-0.29c0.175-0.467,0.413-0.904,0.682-1.323c0.171-0.266,0.376-0.499,0.588-0.725   c0.359-0.032,0.698-0.333,0.681-0.709c0.193-0.204,0.38-0.413,0.54-0.646c0.237-0.344-0.153-0.709-0.496-0.645   c-0.196,0.037-0.383,0.109-0.565,0.197c-3.477-6.475-2.838-14.631,1.558-20.437c-0.006,0.071-0.014,0.143-0.021,0.215   c-0.373,4.319-0.521,8.69-0.124,13.013c0.276,3.009,0.467,7.343,2.271,9.931c-0.578,0.267-1.115,0.753-1.425,1.149   C31.99,90.889,30.641,90.855,29.441,91.159z M49.514,91.996c-2.431-0.144-4.601-0.951-6.899-1.522   c0.19-3.672,0.162-7.359,0.594-11.016c0.305-2.579,0.813-5.155,1.638-7.621c0.663-1.98,1.889-5.719,3.994-6.766   c6.347-3.158,8.13,17.497,8.672,25.762C54.923,91.727,52.26,92.158,49.514,91.996z M69.711,91.773   c-0.574,0.036-1.146,0.09-1.717,0.155c-0.384-0.71-0.95-1.346-1.598-1.823c0.004-0.004,0.008-0.006,0.012-0.01   c2.029-2.437,2.285-6.996,2.667-10.045c0.371-2.961,0.513-5.948,0.509-8.935c1.064,2.644,1.798,5.328,1.796,8.265   c-0.002,2.929-0.79,5.62-1.464,8.399c-0.244,0.045-0.434,0.346-0.284,0.59c0.035,0.057,0.071,0.113,0.106,0.17   c-0.051,0.221-0.104,0.44-0.152,0.663c-0.136,0.631,0.508,0.908,0.924,0.632c0.076,0.146,0.148,0.293,0.211,0.444   c0.186,0.443,0.245,0.984,0.508,1.377C70.728,91.653,70.209,91.742,69.711,91.773z"/><path d="M41.53,54.666c1.157-2.097,0.582-4.654-0.895-6.439c-0.131-0.158-0.357,0.043-0.272,0.21   c0.993,1.936,0.916,3.861,0.461,5.932C40.734,54.781,41.31,55.065,41.53,54.666z"/></g><text x="0" y="115" fill="#000000" font-size="5px" font-weight="bold" font-family="'Helvetica Neue', Helvetica, Arial-Unicode, Arial, Sans-serif">Created by Alena Artemova</text><text x="0" y="120" fill="#000000" font-size="5px" font-weight="bold" font-family="'Helvetica Neue', Helvetica, Arial-Unicode, Arial, Sans-serif">from the Noun Project</text></svg>