<svg xmlns="http://www.w3.org/2000/svg" xmlns:xlink="http://www.w3.org/1999/xlink" version="1.1" x="0px" y="0px" viewBox="0 0 512 640" enable-background="new 0 0 512 512" xml:space="preserve"><g><g><path d="M414.971,185.539c28.112-35.563,16.98-100.192,16.493-102.926l-0.857-4.802l-4.875-0.142    c-37.253-1.084-61.843,11.636-75.923,22.497c-15.45,11.918-21.968,24.208-22.237,24.725c-1.529,2.931-0.395,6.536,2.53,8.076    c2.923,1.539,6.55,0.413,8.099-2.506c0.058-0.107,5.849-10.843,19.424-21.165c17.014-12.937,38.097-19.551,62.733-19.691    c1.94,15.22,5.898,62.308-14.801,88.493c-8.819,11.157-20.814,17.017-36.671,17.913c-3.309,0.187-5.839,3.021-5.651,6.329    c0.181,3.193,2.826,5.662,5.985,5.662c0.113,0,0.229-0.003,0.344-0.01c4.906-0.277,9.552-0.982,13.938-2.1    c2.985,8.843,11.028,34.561,14.982,65.708c3.342,26.321,4.197,60.708-6.201,91.422c-5.762-5.107-15.782-13.023-30.126-20.941    C323.108,320.524,282.875,316,256,316c-48.691,0-84.604,14.183-106.157,26.081c-14.507,8.008-24.594,16.015-30.322,21.116    c-10.569-30.777-9.823-65.268-6.553-91.65c3.854-31.11,11.804-56.797,14.765-65.653c4.383,1.116,9.025,1.82,13.929,2.097    c0.115,0.007,0.23,0.01,0.344,0.01c3.159,0,5.805-2.468,5.985-5.662c0.188-3.308-2.343-6.142-5.651-6.329    c-15.848-0.896-27.838-6.749-36.656-17.894c-20.676-26.13-16.741-73.278-14.812-88.512c24.633,0.142,45.719,6.756,62.729,19.691    c13.536,10.292,19.333,20.996,19.423,21.164c1.538,2.926,5.154,4.056,8.086,2.527c2.938-1.533,4.077-5.157,2.544-8.095    c-0.27-0.517-6.787-12.807-22.237-24.725c-14.08-10.862-38.658-23.584-75.923-22.497l-4.875,0.142l-0.857,4.802    c-0.121,0.681-2.967,16.905-2.48,37.575c0.666,28.279,7.05,50.266,18.974,65.351c5.598,7.082,12.35,12.506,20.182,16.27    c-3.07,9.076-11.268,35.331-15.343,67.985c-6.646,53.257,1.238,97.773,22.802,128.734C149.53,435.336,193.977,454,256,454    c61.988,0,106.365-18.644,131.898-55.413c21.501-30.962,29.266-75.492,22.455-128.775c-4.174-32.656-12.453-58.917-15.557-68.008    C402.626,198.041,409.375,192.618,414.971,185.539z M334.022,427.693C312.989,437.187,286.739,442,256,442    c-57.851,0-98.978-16.925-122.24-50.305c-3.667-5.262-6.785-10.816-9.447-16.562c3.778-3.684,14.457-13.302,31.822-22.818    C176.378,341.223,210.137,328,256,328s79.622,13.223,99.865,24.315c17.131,9.387,27.761,18.88,31.671,22.671    c-2.669,5.826-5.81,11.453-9.512,16.782C367.232,407.299,352.428,419.386,334.022,427.693z"/><path d="M189.182,111.575c1.974,2.661,5.733,3.219,8.394,1.243c2.661-1.974,3.218-5.732,1.243-8.394    c-6.674-8.995-9.015-28.511-9.637-41.143c46.641,15.776,61.788,36.002,61.922,36.187l4.961,6.933l4.882-7.005    c0.148-0.213,14.63-20.371,61.101-36.113c-0.616,12.624-2.953,32.128-9.641,41.143c-1.975,2.661-1.418,6.419,1.243,8.394    c1.075,0.797,2.328,1.182,3.57,1.182c1.835,0,3.646-0.839,4.823-2.425c5.404-7.284,9.09-19.125,10.954-35.196    c1.342-11.564,1.232-21.061,1.227-21.459l-0.106-7.979l-7.636,2.318c-41.516,12.603-62.083,29.129-70.552,37.701    c-8.634-8.519-29.574-25.069-71.187-37.701l-7.636-2.318l-0.106,7.979c-0.006,0.398-0.115,9.895,1.227,21.459    C180.092,92.45,183.777,104.292,189.182,111.575z"/><path d="M213.195,223.978c0,5.776,4.669,10.475,10.408,10.475s10.408-4.699,10.408-10.475c0-5.775-4.669-10.474-10.408-10.474    S213.195,218.203,213.195,223.978z"/><path d="M277.988,223.978c0,5.776,4.669,10.475,10.408,10.475s10.408-4.699,10.408-10.475c0-5.775-4.669-10.474-10.408-10.474    S277.988,218.203,277.988,223.978z"/><path d="M193.611,380.29c-3.547,0-6.432,2.886-6.432,6.433s2.885,6.432,6.432,6.432s6.433-2.885,6.433-6.432    S197.158,380.29,193.611,380.29z"/><path d="M317.611,380.29c-3.547,0-6.432,2.886-6.432,6.433s2.885,6.432,6.432,6.432s6.433-2.885,6.433-6.432    S321.158,380.29,317.611,380.29z"/></g></g><text x="0" y="527" fill="#000000" font-size="5px" font-weight="bold" font-family="'Helvetica Neue', Helvetica, Arial-Unicode, Arial, Sans-serif">Created by Richard Schumann</text><text x="0" y="532" fill="#000000" font-size="5px" font-weight="bold" font-family="'Helvetica Neue', Helvetica, Arial-Unicode, Arial, Sans-serif">from the Noun Project</text></svg>