<svg xmlns="http://www.w3.org/2000/svg" xmlns:xlink="http://www.w3.org/1999/xlink" version="1.1" x="0px" y="0px" viewBox="0 0 100 125" style="enable-background:new 0 0 100 100;" xml:space="preserve"><path d="M40.6571045,24.7054443L36.96698,19.4821777c1.1575928-0.9909058,1.90802-2.4441528,1.90802-4.0837402  C38.875,12.421875,36.453125,10,33.4765625,10s-5.3984375,2.421875-5.3984375,5.3984375S30.5,20.796875,33.4765625,20.796875  c0.6150513,0,1.1967163-0.1252441,1.7479248-0.3156128l3.8436279,5.4405518  c-1.7149048,1.4420166-3.3463745,3.2299805-4.8718262,5.3320312c-1.1115723-1.3859863-2.5377197-2.6506348-4.2138672-3.6825562  c-4.6982422-2.8925781-12.6601562-4.6289062-14.9570312-0.8964844c-1.0292969,1.6728516-0.7705078,4.3574219,0.7119141,7.3662109  c1.3994141,2.8388672,3.6542969,5.4082031,6.0341797,6.8720703c1.9263916,1.1854858,4.1772461,1.8189087,6.4503174,1.8373413  c-2.3405151,6.4346924-3.6270752,13.644104-3.6270752,20.7359009C24.5947266,81.5751953,32.7089844,90,50.1308594,90  s25.5361328-8.4248047,25.5361328-26.5136719c0-7.0952148-1.2878418-14.3081055-3.6306152-20.7451782  c2.1809082-0.0646362,4.3303223-0.6895752,6.1804199-1.828064c2.3798828-1.4638672,4.6347656-4.0332031,6.0341797-6.8720703  c1.4824219-3.0087891,1.7412109-5.6933594,0.7119141-7.3662109c-2.2978516-3.7333984-10.2587891-1.9941406-14.9570312,0.8964844  c-1.6035156,0.9863892-2.9834595,2.1845703-4.0747681,3.500061c-1.4179688-1.9285889-2.9269409-3.5835571-4.5076904-4.9467163  l3.9868774-5.6433716c0.5512085,0.1903687,1.1328735,0.3156128,1.7479248,0.3156128  c2.9765625,0,5.3984375-2.421875,5.3984375-5.3984375S70.1347656,10,67.1582031,10s-5.3984375,2.421875-5.3984375,5.3984375  c0,1.6395874,0.7504272,3.0928345,1.90802,4.0837402l-3.8109131,5.3943481  c-3.0647583-2.2110596-6.3547974-3.3726196-9.7260132-3.3726196C46.8514404,21.5039062,43.6503296,22.6103516,40.6571045,24.7054443  z M30.078125,15.3984375C30.078125,13.5244141,31.6025391,12,33.4765625,12S36.875,13.5244141,36.875,15.3984375  s-1.5244141,3.3984375-3.3984375,3.3984375S30.078125,17.2724609,30.078125,15.3984375z M67.1582031,12  c1.8740234,0,3.3984375,1.5244141,3.3984375,3.3984375s-1.5244141,3.3984375-3.3984375,3.3984375  s-3.3984375-1.5244141-3.3984375-3.3984375S65.2841797,12,67.1582031,12z M22.8203125,39.2099609  c-2.0722656-1.2753906-4.0498047-3.5380859-5.2890625-6.0527344c-1.1201172-2.2734375-1.4345703-4.40625-0.8027344-5.4335938  c1.2919922-2.1015625,7.5673828-1.3046875,12.2050781,1.5507812c1.6794434,1.0328369,3.0709839,2.3139038,4.0733643,3.7103882  c-0.3704834,0.5736084-0.7356567,1.161499-1.0909424,1.7749634c-1.0809937,1.8665771-2.0496826,3.8688965-2.9078369,5.9645996  C26.8374023,40.8671875,24.6541138,40.3382568,22.8203125,39.2099609z M50.1308594,88  c-15.838501,0-23.1171265-7.1852417-23.4992676-23.1897583c0.5890503-4.1693115,9.6958008-8.6452026,23.4953613-8.6452026  c13.87854,0,22.9707031,4.5007324,23.5018311,8.6930542C73.2331543,80.8289185,65.9534912,88,50.1308594,88z M71.0546875,29.2744141  c4.6396484-2.8554688,10.9130859-3.6523438,12.2050781-1.5507812c0.6318359,1.0273438,0.3173828,3.1601562-0.8027344,5.4335938  c-1.2392578,2.5146484-3.2167969,4.7773438-5.2890625,6.0527344c-1.7543945,1.0803833-3.8369141,1.6095581-5.9082031,1.5294189  c-0.8596191-2.1011963-1.8305664-4.1085205-2.9140625-5.9796143c-0.3955688-0.6830444-0.8041382-1.3323364-1.2185059-1.9658813  C68.1195679,31.4727173,69.4536133,30.2595825,71.0546875,29.2744141z M73.5979004,60.7960205  c-3.8693848-3.9589233-12.803833-6.6309814-23.4709473-6.6309814c-10.6401978,0-19.5848389,2.6730347-23.4630737,6.6287231  c0.9074097-19.8389893,11.6796265-37.289856,23.46698-37.289856C61.9186401,23.5039062,72.6911621,40.9561157,73.5979004,60.7960205  z"/><path d="M42.6064453,64.1835938c-0.9033203,0.1484375-1.6494141,0.6601562-2.1005859,1.4433594  c-0.5458984,0.9482422-0.5957031,2.1865234-0.1347656,3.3984375c0.7421875,1.9482422,2.5810547,3.3105469,4.3535156,3.3105469  c0.1816406,0,0.3623047-0.0136719,0.5410156-0.0439453c0.9033203-0.1474609,1.6494141-0.6601562,2.0996094-1.4433594  c0.5458984-0.9482422,0.5957031-2.1865234,0.1347656-3.3964844C46.6835938,65.3046875,44.5410156,63.8652344,42.6064453,64.1835938z   M45.6318359,69.8505859c-0.1494141,0.2597656-0.3818359,0.4179688-0.6904297,0.46875  c-0.9638672,0.1611328-2.2333984-0.7783203-2.7011719-2.0058594c-0.2421875-0.6376953-0.2431641-1.2685547-0.0009766-1.6884766  c0.1494141-0.2597656,0.3818359-0.4169922,0.6904297-0.4667969c0.0722656-0.0126953,0.1464844-0.0185547,0.2216797-0.0185547  c0.9345703,0,2.046875,0.8876953,2.4794922,2.0234375C45.8730469,68.8007812,45.8740234,69.4316406,45.6318359,69.8505859z"/><path d="M58.0986328,64.3115234c-1.8261719-0.4511719-4.1806641,0.7714844-5.3515625,2.7949219  c-0.6962891,1.203125-0.8486328,2.4746094-0.4179688,3.4892578c0.3378906,0.7958984,1,1.3535156,1.8652344,1.5693359  c0.2578125,0.0634766,0.5253906,0.0947266,0.7988281,0.0947266c1.6699219,0,3.546875-1.1513672,4.5527344-2.8896484  c0.6962891-1.203125,0.8496094-2.4746094,0.4189453-3.4882812C59.6279297,65.0849609,58.9648438,64.5273438,58.0986328,64.3115234z   M57.8154297,68.3681641c-0.7861328,1.3583984-2.2832031,2.0732422-3.1367188,1.8554688  c-0.2558594-0.0634766-0.4169922-0.1933594-0.5087891-0.4091797c-0.1386719-0.3271484-0.1308594-0.9472656,0.3076172-1.7060547  c0.6943359-1.1992188,1.9433594-1.8925781,2.8134766-1.8925781c0.1162109,0,0.2246094,0.0117188,0.3242188,0.0371094  c0.2558594,0.0634766,0.4169922,0.1933594,0.5087891,0.4091797C58.2626953,66.9892578,58.2548828,67.609375,57.8154297,68.3681641z"/><path d="M41.3408203,42.5839844c-2.7978516,0-5.0742188,2.2597656-5.0742188,5.0371094c0,0.5527344,0.4472656,1,1,1s1-0.4472656,1-1  c0-1.6748047,1.3789062-3.0371094,3.0742188-3.0371094s3.0751953,1.3623047,3.0751953,3.0371094c0,0.5527344,0.4472656,1,1,1  s1-0.4472656,1-1C46.4160156,44.84375,44.1396484,42.5839844,41.3408203,42.5839844z"/><path d="M53.8466797,47.6210938c0,0.5527344,0.4472656,1,1,1s1-0.4472656,1-1c0-1.6748047,1.3789062-3.0371094,3.0742188-3.0371094  s3.0742188,1.3623047,3.0742188,3.0371094c0,0.5527344,0.4472656,1,1,1s1-0.4472656,1-1  c0-2.7773438-2.2763672-5.0371094-5.0742188-5.0371094S53.8466797,44.84375,53.8466797,47.6210938z"/><text x="0" y="115" fill="#000000" font-size="5px" font-weight="bold" font-family="'Helvetica Neue', Helvetica, Arial-Unicode, Arial, Sans-serif">Created by Made x Made</text><text x="0" y="120" fill="#000000" font-size="5px" font-weight="bold" font-family="'Helvetica Neue', Helvetica, Arial-Unicode, Arial, Sans-serif">from the Noun Project</text></svg>