<svg xmlns="http://www.w3.org/2000/svg" xmlns:xlink="http://www.w3.org/1999/xlink" version="1.1" x="0px" y="0px" viewBox="0 0 100 125" enable-background="new 0 0 100 100" xml:space="preserve"><g><path d="M55.906,25.77c0.556-4.026-0.376-8.025-2.586-11.382c-2.301,1.992-3.988,4.541-4.917,7.407   c2.878,1.215,5.371,2.828,7.326,4.742C55.776,26.277,55.869,26.033,55.906,25.77z"/><path d="M18.451,14.388c-2.211,3.357-3.143,7.356-2.586,11.382c0.036,0.257,0.126,0.495,0.173,0.748   c1.957-1.91,4.45-3.521,7.328-4.733C22.437,18.923,20.75,16.378,18.451,14.388z"/><circle cx="35.885" cy="48.908" r="2.161"/><circle cx="30.124" cy="40.265" r="2.161"/><circle cx="41.647" cy="40.265" r="2.161"/><path d="M92.06,41.706c0.083-5.568-4.514-8.642-10.083-8.642s-10.083,3.074-10.083,8.642c0,14.076-7.492,21.34-14.417,26.043   c0.027-5.433-2.034-10.618-5.826-14.705c7.11-3.71,11.601-9.774,11.601-16.419c0-1.952-0.387-3.892-1.151-5.782   c0.442-1.35,0.761-2.72,0.95-4.088c1.03-7.455-1.478-14.824-6.882-20.218L54.629,5l-1.9,1.062   c-4.52,2.527-8.059,6.381-10.164,11.014c-2.199-0.409-4.436-0.616-6.68-0.616c-2.235,0-4.465,0.205-6.657,0.612   c-2.106-4.631-5.644-8.483-10.162-11.009L17.166,5l-1.541,1.538c-5.404,5.394-7.912,12.763-6.882,20.218   c0.187,1.353,0.503,2.712,0.94,4.054c-0.774,1.901-1.166,3.852-1.166,5.816c0,6.625,4.464,12.673,11.538,16.386   c-3.568,3.849-5.776,8.97-5.776,14.621c0,2.205,0.336,4.386,1,6.481c0.377,1.189-0.033,2.475-1.02,3.2l-2.582,1.896   c-3.52,2.585-4.746,7.332-2.851,11.042C10.322,93.18,13.281,95,16.549,95c1.85,0,3.617-0.58,5.111-1.677l1.034-0.759   C24.249,94.065,26.356,95,28.683,95c3.006,0,5.653-1.547,7.202-3.883C37.434,93.453,40.081,95,43.087,95   c2.328,0,4.434-0.935,5.99-2.436l1.034,0.759C51.605,94.42,53.372,95,55.222,95c3.268,0,6.227-1.82,7.723-4.749   c1.895-3.71,0.669-8.457-2.851-11.042l-2.577-1.893c-0.146-0.107-0.255-0.245-0.377-0.373   C87.116,72.841,91.997,45.942,92.06,41.706z M74.776,41.706c0-0.064,0.017-0.124,0.019-0.188c0.107,3.872,5.756,4.221,7.183,4.221   c1.43,0,7.108-0.347,7.188-4.246c0.001,0.057,0.015,0.113,0.014,0.17c-0.002,0.136-0.49,5.808-3.692,12.409   c-1.728,0.776-3.706,1.021-5.682,0.501c-2.773-0.73-4.853-2.737-5.826-5.217C74.474,47.022,74.776,44.498,74.776,41.706z    M11.399,36.626c0-1.996,0.503-3.904,1.385-5.688c-0.553-1.447-0.965-2.972-1.187-4.576c-0.942-6.817,1.541-13.271,6.063-17.785   c4.544,2.54,8.1,6.705,9.785,11.84c2.635-0.684,5.469-1.076,8.44-1.076c2.979,0,5.822,0.394,8.463,1.082   c1.683-5.139,5.241-9.305,9.787-11.846c4.522,4.514,7.006,10.968,6.063,17.785c-0.223,1.614-0.638,3.149-1.196,4.604   c0.873,1.776,1.37,3.675,1.37,5.66c0,7.428-6.651,13.743-15.968,16.188c-1.784,2.837-4.92,4.736-8.519,4.736   c-3.599,0-6.735-1.9-8.519-4.736C18.05,50.369,11.399,44.054,11.399,36.626z M58.388,81.531c2.313,1.699,3.296,4.854,1.991,7.41   c-1.057,2.071-3.091,3.178-5.158,3.178c-1.184,0-2.378-0.364-3.406-1.118l-1.046-0.768c0.593-1.171,0.96-2.475,0.96-3.875   l-2.881-17.285h-2.881l2.881,17.285c0,3.182-2.58,5.762-5.762,5.762s-5.762-2.58-5.762-5.762V74.835h-2.881v11.523   c0,3.182-2.58,5.762-5.762,5.762s-5.762-2.58-5.762-5.762l2.881-17.285h-2.881l-2.881,17.285c0,1.4,0.366,2.704,0.96,3.875   l-1.046,0.768c-1.028,0.754-2.222,1.118-3.406,1.118c-2.066,0-4.1-1.108-5.158-3.178c-1.306-2.556-0.322-5.711,1.991-7.41   l2.582-1.896c1.995-1.465,2.809-4.032,2.062-6.391c-0.561-1.771-0.865-3.654-0.865-5.611c0-5.238,2.173-9.947,5.643-13.34   c0.907,0.364,1.817,0.727,2.789,1.016c2.448,3.228,6.217,5.122,10.292,5.122s7.844-1.895,10.292-5.122   c0.931-0.277,1.8-0.627,2.672-0.973c3.599,3.505,5.858,8.373,5.758,13.657c-0.036,1.893-0.357,3.715-0.919,5.429   c-0.75,2.288,0.183,4.793,2.123,6.217L58.388,81.531z M56.47,74.139c0.286-0.898,0.511-1.811,0.676-2.736   c2.59-1.644,5.426-3.639,8.069-6.222c0.497,1.186,1.239,2.286,2.287,3.177c0.871,0.741,1.86,1.22,2.882,1.555   C66.572,71.924,61.966,73.42,56.47,74.139z M76.297,65.951c-1.8-0.101-3.581-0.721-5.062-1.98   c-1.033-0.879-1.777-1.959-2.282-3.124c1.32-1.833,2.484-3.895,3.425-6.214c0.917,2.619,3.076,4.751,5.962,5.51   c1.126,0.296,2.249,0.319,3.331,0.166C80.188,62.272,78.414,64.187,76.297,65.951z"/></g><text x="0" y="115" fill="#000000" font-size="5px" font-weight="bold" font-family="'Helvetica Neue', Helvetica, Arial-Unicode, Arial, Sans-serif">Created by Christopher T. Howlett</text><text x="0" y="120" fill="#000000" font-size="5px" font-weight="bold" font-family="'Helvetica Neue', Helvetica, Arial-Unicode, Arial, Sans-serif">from the Noun Project</text></svg>